<?xml version="1.0" encoding="UTF-8"?>
<svg xmlns="http://www.w3.org/2000/svg" xmlns:xlink="http://www.w3.org/1999/xlink" width="40px" height="40px" viewBox="0 0 40 40" version="1.1">
<g id="surface1">
<path style=" stroke:none;fill-rule:nonzero;fill:rgb(78.431373%,14.117647%,18.431373%);fill-opacity:1;" d="M 7.628906 14.515625 L 19.460938 19.882812 C 19.804688 20.039062 20.195312 20.039062 20.539062 19.882812 L 32.367188 14.515625 C 33.210938 14.136719 33.210938 12.867188 32.367188 12.484375 L 20.539062 7.117188 C 20.371094 7.039062 20.1875 7 20 7 C 19.8125 7 19.628906 7.039062 19.460938 7.117188 L 7.628906 12.484375 C 6.789062 12.863281 6.789062 14.136719 7.628906 14.515625 Z M 32.371094 19 L 29.421875 17.664062 L 21.210938 21.382812 C 20.828125 21.558594 20.421875 21.644531 20 21.644531 C 19.578125 21.644531 19.171875 21.558594 18.789062 21.382812 L 10.582031 17.664062 L 7.628906 19 C 6.789062 19.382812 6.789062 20.648438 7.628906 21.03125 L 19.460938 26.394531 C 19.804688 26.550781 20.195312 26.550781 20.539062 26.394531 L 32.371094 21.03125 C 33.210938 20.648438 33.210938 19.382812 32.371094 19 Z M 32.371094 25.488281 L 29.429688 24.15625 L 21.210938 27.882812 C 20.828125 28.058594 20.421875 28.144531 20 28.144531 C 19.578125 28.144531 19.171875 28.058594 18.789062 27.882812 L 10.570312 24.15625 L 7.628906 25.488281 C 6.789062 25.871094 6.789062 27.140625 7.628906 27.519531 L 19.460938 32.882812 C 19.804688 33.039062 20.195312 33.039062 20.539062 32.882812 L 32.371094 27.519531 C 33.210938 27.140625 33.210938 25.871094 32.371094 25.488281 Z M 32.371094 25.488281 "/>
</g>
</svg>
